<?xml version="1.0" standalone="no"?>
<!DOCTYPE svg PUBLIC "-//W3C//DTD SVG 20010904//EN"
 "http://www.w3.org/TR/2001/REC-SVG-20010904/DTD/svg10.dtd">
<svg version="1.0" xmlns="http://www.w3.org/2000/svg"
 width="35.000000pt" height="35.000000pt" viewBox="0 0 35.000000 35.000000"
 preserveAspectRatio="xMidYMid meet">
<metadata>
Created by potrace 1.16, written by Peter Selinger 2001-2019
</metadata>
<g transform="translate(0.000000,35.000000) scale(0.100000,-0.100000)"
fill="#000000" stroke="none">
<path d="M44 306 c-34 -34 -34 -34 -34 -131 0 -97 0 -97 34 -131 34 -34 34
-34 131 -34 97 0 97 0 131 34 34 34 34 34 34 131 0 97 0 97 -34 131 -34 34
-34 34 -131 34 -97 0 -97 0 -131 -34z m244 -12 c20 -14 22 -23 22 -116 0 -137
-1 -138 -136 -138 -130 0 -134 4 -134 137 0 80 3 96 20 113 17 17 33 20 113
20 68 0 99 -4 115 -16z"/>
<path d="M115 235 c-34 -33 -34 -87 0 -120 33 -34 87 -34 120 0 54 53 16 145
-60 145 -25 0 -44 -8 -60 -25z"/>
</g>
</svg>
