<?xml version="1.0" standalone="no"?>
<!DOCTYPE svg PUBLIC "-//W3C//DTD SVG 20010904//EN"
 "http://www.w3.org/TR/2001/REC-SVG-20010904/DTD/svg10.dtd">
<svg version="1.0" xmlns="http://www.w3.org/2000/svg"
 width="35.000000pt" height="35.000000pt" viewBox="0 0 35.000000 35.000000"
 preserveAspectRatio="xMidYMid meet">

<g transform="translate(0.000000,35.000000) scale(0.100000,-0.100000)"
fill="#000000" stroke="none">
<path d="M210 307 c-14 -7 -29 -27 -35 -45 -9 -31 -12 -33 -40 -28 -16 4 -49
19 -72 35 -34 25 -42 27 -47 14 -4 -8 0 -28 8 -44 12 -25 12 -28 -2 -31 -12
-2 -9 -10 12 -35 15 -18 22 -33 16 -33 -18 0 9 -30 35 -40 17 -7 14 -10 -25
-28 l-45 -19 44 -13 c115 -31 227 43 250 165 5 27 14 51 20 53 6 2 11 8 11 13
0 4 -8 6 -17 2 -17 -6 -17 -5 -1 13 16 18 15 19 -15 20 -18 1 -41 4 -52 8 -11
3 -31 1 -45 -7z"/>
</g>
</svg>
