<?xml version="1.0" standalone="no"?>
<!DOCTYPE svg PUBLIC "-//W3C//DTD SVG 20010904//EN"
 "http://www.w3.org/TR/2001/REC-SVG-20010904/DTD/svg10.dtd">
<svg version="1.0" xmlns="http://www.w3.org/2000/svg"
 width="83.000000pt" height="35.000000pt" viewBox="0 0 83.000000 35.000000"
 preserveAspectRatio="xMidYMid meet">

<g transform="translate(0.000000,35.000000) scale(0.100000,-0.100000)"
fill="#000000" stroke="none">
<path d="M397 343 c-49 -8 -61 -42 -61 -168 0 -147 8 -161 98 -170 36 -4 129
-6 206 -3 188 5 185 2 185 173 0 176 8 170 -223 171 -97 1 -189 0 -205 -3z
m83 -68 c0 -8 -9 -15 -20 -15 -19 0 -20 -7 -20 -95 0 -78 -3 -95 -15 -95 -12
0 -15 17 -15 95 0 78 -3 95 -15 95 -8 0 -15 7 -15 15 0 11 12 15 50 15 38 0
50 -4 50 -15z m140 -21 c0 -32 2 -35 16 -23 26 21 44 -14 44 -87 0 -64 -16
-94 -42 -78 -7 5 -21 7 -30 6 -16 -3 -18 8 -18 107 0 92 3 111 15 111 11 0 15
-11 15 -36z m152 -31 c10 -9 18 -29 18 -45 0 -24 -4 -28 -30 -28 -27 0 -30 -3
-30 -30 0 -34 19 -41 27 -10 7 26 33 26 33 1 0 -25 -37 -52 -59 -43 -25 9 -31
23 -31 84 0 78 30 109 72 71z m-262 -64 c0 -44 4 -68 10 -64 6 3 10 35 10 71
0 50 3 64 15 64 12 0 15 -16 15 -81 0 -71 -2 -80 -17 -77 -10 1 -24 -1 -31 -6
-24 -15 -37 13 -40 89 -4 71 -3 75 17 75 19 0 21 -5 21 -71z"/>
<path d="M620 150 c0 -45 3 -61 13 -57 7 2 12 23 12 57 0 34 -5 55 -12 58 -10
3 -13 -13 -13 -58z"/>
<path d="M730 191 c0 -12 6 -21 16 -21 9 0 14 7 12 17 -5 25 -28 28 -28 4z"/>
<path d="M17 243 c8 -27 17 -76 20 -110 4 -51 9 -63 22 -63 14 0 17 9 17 43
-1 23 7 68 17 100 21 72 21 77 2 77 -9 0 -18 -12 -22 -30 -8 -44 -21 -46 -29
-5 -4 25 -11 35 -25 35 -17 0 -17 -2 -2 -47z"/>
<path d="M126 224 c-22 -21 -22 -127 0 -148 19 -20 24 -20 52 0 18 13 22 25
22 73 0 43 -5 62 -18 74 -23 21 -36 21 -56 1z m42 -80 c-2 -27 -7 -49 -13 -49
-11 0 -19 79 -10 103 11 30 26 -5 23 -54z"/>
<path d="M220 161 c0 -80 12 -108 39 -92 7 5 22 6 32 4 18 -5 19 1 19 81 0 69
-3 86 -15 86 -11 0 -15 -17 -17 -72 -2 -46 -7 -73 -15 -76 -10 -3 -13 16 -13
72 0 61 -3 76 -15 76 -12 0 -15 -15 -15 -79z"/>
</g>
</svg>
